<svg width="24" height="15" viewBox="0 0 24 15" fill="none" xmlns="http://www.w3.org/2000/svg">
<path d="M0.708008 0.204102C4.48692 0.220623 8.26397 0.212891 12.0479 0.212891H23.2227C23.4076 0.212891 23.5568 0.213974 23.6719 0.229492C23.7867 0.245003 23.8861 0.276454 23.959 0.349609C24.0318 0.422973 24.0631 0.523061 24.0781 0.637695C24.0932 0.752396 24.0938 0.900555 24.0938 1.08398C24.0937 2.00323 24.0809 2.91788 24.0996 3.83496C24.1036 4.03624 24.0761 4.20812 23.9805 4.34668C23.9083 4.45118 23.8039 4.52794 23.668 4.58691L23.5215 4.63965C22.1497 5.06767 21.3391 6.1757 21.3496 7.52637C21.3603 8.85102 22.1709 9.93762 23.5225 10.3594L23.6553 10.4062C23.7813 10.4575 23.885 10.5237 23.9609 10.6172C24.0638 10.7439 24.1031 10.9061 24.0996 11.1094C24.082 12.0995 24.0798 13.0894 24.0996 14.0791C24.1048 14.3156 24.0615 14.5048 23.9316 14.6309C23.8031 14.7556 23.6126 14.7959 23.3818 14.7959C15.8035 14.7886 8.22485 14.7886 0.646484 14.7959C0.403107 14.7959 0.203482 14.7545 0.0703125 14.625C-0.0641439 14.4941 -0.10659 14.2973 -0.0986328 14.0488L-0.0859375 13.3213C-0.0784199 12.5935 -0.0854275 11.8645 -0.0986328 11.1357L-0.0996094 11.1338C-0.0996063 10.9434 -0.0702669 10.782 0.0205078 10.6504C0.111916 10.518 0.255203 10.4316 0.451172 10.3682L0.452148 10.3672C1.84611 9.93432 2.65723 8.84878 2.65723 7.50195C2.65716 6.1553 1.8476 5.07203 0.458008 4.63477C0.259529 4.57289 0.114443 4.48604 0.0224609 4.35254C-0.0687256 4.22015 -0.0966726 4.05705 -0.0966797 3.86719V3.86523C-0.0757601 2.91064 -0.0637397 1.95655 -0.0966797 1.00781C-0.105167 0.733959 -0.0619702 0.520816 0.0820312 0.381836C0.224295 0.244622 0.440208 0.204106 0.708008 0.204102ZM18.0537 1.06641C17.8854 1.06028 17.7461 1.08133 17.6348 1.16699C17.5713 1.21583 17.5532 1.2968 17.5615 1.4375C17.5659 1.51117 17.5746 1.5717 17.5811 1.65527C17.5869 1.73095 17.5896 1.8136 17.5762 1.89258C17.5576 2.00371 17.5203 2.11307 17.4453 2.19434C17.3664 2.27981 17.2561 2.32306 17.1191 2.31836C16.997 2.31417 16.8981 2.26882 16.8271 2.18945C16.7584 2.11256 16.7237 2.01177 16.71 1.9082V1.90723C16.6892 1.79092 16.6843 1.67224 16.6963 1.55469V1.5498H16.6973C16.7309 1.32531 16.691 1.22661 16.6318 1.17578C16.5632 1.11693 16.4336 1.08819 16.209 1.08984C13.7312 1.11297 11.2529 1.10254 8.77637 1.10254C6.26333 1.10254 3.74746 1.1115 1.2334 1.09277C1.02829 1.09119 0.929786 1.12444 0.878906 1.17578C0.828886 1.22639 0.798487 1.32192 0.807617 1.52148C0.837535 2.14755 0.831925 2.77684 0.807617 3.40332C0.8021 3.56275 0.828964 3.66636 0.881836 3.74414C0.935691 3.82322 1.02667 3.89003 1.17969 3.95605H1.17871C2.5329 4.53384 3.33455 5.58811 3.51074 7.04395C3.69252 8.54421 3.1999 9.94543 1.85352 10.6289C1.3201 10.8999 1.04661 11.2063 0.911133 11.5518C0.773662 11.9025 0.772863 12.308 0.813477 12.791H0.8125C0.835051 12.9984 0.835234 13.2077 0.8125 13.415V13.418C0.779011 13.6561 0.818698 13.7633 0.881836 13.8193C0.952991 13.8825 1.08698 13.9141 1.32617 13.9131H1.32715C6.11662 13.8955 10.9107 13.9036 15.6953 13.9014C15.781 13.9014 15.8689 13.9054 15.9541 13.9102C16.0402 13.915 16.1238 13.92 16.2051 13.9209C16.3692 13.9226 16.5106 13.9076 16.624 13.8525C16.6654 13.8325 16.6873 13.8044 16.7002 13.7666C16.7145 13.7242 16.7183 13.6681 16.7148 13.5957C16.7111 13.518 16.7017 13.451 16.6953 13.3613C16.6896 13.2804 16.6873 13.1918 16.7051 13.1084L16.7256 13.0283C16.7487 12.949 16.7824 12.8724 16.8369 12.8115C16.9146 12.7249 17.0239 12.6807 17.1631 12.6875C17.3027 12.6943 17.4085 12.7509 17.4785 12.8447C17.5448 12.9338 17.5712 13.0465 17.5791 13.1562L17.5898 13.3828C17.591 13.4583 17.5896 13.5339 17.5859 13.6094V13.6104C17.5781 13.7379 17.5971 13.8059 17.6279 13.8428C17.6561 13.8765 17.7151 13.9077 17.8535 13.9072C19.5426 13.8984 21.2318 13.8974 22.9209 13.9062C23.0571 13.9062 23.1185 13.8808 23.1494 13.8486C23.1811 13.8155 23.2047 13.7518 23.2031 13.6182C23.1932 12.9029 23.1921 12.1852 23.2031 11.4707C23.2031 11.353 23.1773 11.2837 23.1367 11.2334C23.115 11.2066 23.0866 11.182 23.0498 11.1582L22.9111 11.0869C22.1263 10.7505 21.5168 10.2786 21.1045 9.67383C20.6919 9.06861 20.4806 8.33637 20.4834 7.48633C20.4835 6.64775 20.6969 5.92349 21.1074 5.3252C21.5178 4.72725 22.1214 4.26107 22.8926 3.93066C23.0292 3.87211 23.1034 3.81157 23.1455 3.74414C23.1877 3.67645 23.2066 3.58727 23.2041 3.45117L23.1914 2.45703C23.1904 2.12589 23.194 1.79447 23.2051 1.46289V1.46191C23.2114 1.28619 23.1792 1.20621 23.1357 1.16504C23.0901 1.12193 23.0039 1.09454 22.8301 1.09668C21.4188 1.11208 19.9984 1.09656 18.5908 1.10645H18.5898C18.4986 1.10643 18.4048 1.09798 18.3154 1.08887C18.2245 1.07959 18.1378 1.06949 18.0537 1.06641Z" fill="#FA8B02" stroke="#FA8B02" stroke-width="0.2"/>
<path d="M12.7665 4.00293C12.9008 3.96959 13.0353 4.00817 13.1601 4.13086C13.2214 4.1912 13.2636 4.25592 13.2841 4.3252C13.3047 4.395 13.3018 4.46313 13.2841 4.52637C13.2499 4.64783 13.1599 4.75359 13.0751 4.83789C12.2043 5.70278 11.3328 6.5687 10.4628 7.43652L10.4638 7.4375C9.32191 8.57936 8.18008 9.72143 7.03896 10.8633H7.03799C6.92083 10.9794 6.77555 11.1677 6.50088 11.1914L6.48623 11.1934L6.47158 11.1904C6.33137 11.161 6.19508 11.1006 6.12197 10.9854C6.04418 10.8624 6.05803 10.7111 6.14346 10.5488L6.14834 10.54L6.22549 10.4336C6.30584 10.3295 6.39728 10.2343 6.49892 10.1504C8.44198 8.20514 10.3855 6.26068 12.33 4.31836L12.3319 4.31641L12.4501 4.20605C12.538 4.11956 12.6444 4.03324 12.7665 4.00293Z" fill="#FA8B02" stroke="#FA8B02" stroke-width="0.2"/>
<path d="M7.4416 3.625C7.66068 3.62499 7.87791 3.66699 8.08027 3.75098C8.28284 3.83507 8.4665 3.95886 8.62128 4.11426C8.77613 4.26975 8.89934 4.4542 8.98261 4.65723C9.04511 4.80963 9.08448 4.97038 9.0998 5.13379L9.10664 5.29785C9.1041 5.51883 9.0578 5.73724 8.97089 5.94043C8.88403 6.14352 8.75872 6.328 8.60078 6.48242C8.44271 6.6369 8.25514 6.75859 8.05 6.84082C7.84487 6.92303 7.62546 6.96445 7.40449 6.96191C7.18355 6.95935 6.96506 6.91306 6.76191 6.82617C6.55879 6.73926 6.37434 6.61309 6.21992 6.45508C6.06559 6.2971 5.9437 6.11026 5.86152 5.90527C5.77932 5.70021 5.7389 5.48068 5.7414 5.25977V5.25879C5.74522 5.03958 5.7924 4.82302 5.88007 4.62207C5.96775 4.42124 6.09413 4.23972 6.25214 4.08789C6.41021 3.93603 6.59673 3.81688 6.80097 3.7373C7.00525 3.65776 7.22341 3.61908 7.44257 3.62402L7.4416 3.625ZM7.44257 4.50391C7.23434 4.49971 7.03329 4.57844 6.883 4.72266C6.73264 4.86697 6.64509 5.06507 6.64082 5.27344C6.63662 5.48155 6.71552 5.68275 6.85957 5.83301C7.00382 5.9833 7.20208 6.07085 7.41035 6.0752C7.51337 6.07731 7.61609 6.0589 7.7121 6.02148C7.80819 5.98398 7.89647 5.92785 7.97089 5.85645C8.04534 5.78499 8.10524 5.699 8.14668 5.60449C8.18797 5.51017 8.20996 5.40861 8.2121 5.30566C8.21422 5.20256 8.19587 5.09998 8.15839 5.00391C8.12087 4.90778 8.06481 4.81957 7.99335 4.74512C7.92193 4.67075 7.83681 4.61074 7.74238 4.56934C7.64788 4.52791 7.54573 4.50602 7.44257 4.50391Z" fill="#FA8B02" stroke="#FA8B02" stroke-width="0.2"/>
<path d="M11.8028 8.0083C12.2446 8.01408 12.6671 8.19195 12.9796 8.50439C13.2919 8.81683 13.4699 9.23943 13.4756 9.68115C13.4776 9.90034 13.4358 10.1176 13.3536 10.3208C13.2713 10.5239 13.15 10.7088 12.9962 10.8647C12.8422 11.0208 12.6582 11.145 12.4561 11.23C12.2547 11.3146 12.0388 11.3587 11.8204 11.3599C11.6014 11.3665 11.3831 11.3294 11.1788 11.2505C10.9744 11.1715 10.7876 11.053 10.6299 10.9009C10.4722 10.7486 10.347 10.5654 10.2608 10.3638C10.1747 10.1622 10.129 9.94523 10.128 9.72607H10.129C10.122 9.50316 10.1598 9.28078 10.2403 9.07275C10.3211 8.86408 10.4428 8.67369 10.5987 8.51318C10.7549 8.35247 10.9428 8.22493 11.1495 8.13818C11.3561 8.05151 11.5778 8.00724 11.8018 8.0083H11.8028ZM11.7891 8.9126C11.6841 8.91254 11.5801 8.93405 11.4835 8.9751C11.3868 9.01613 11.2995 9.07631 11.2266 9.15186C11.1537 9.22753 11.0961 9.31734 11.0587 9.41553C11.0213 9.51329 11.0041 9.61761 11.0079 9.72217L11.0303 9.87256C11.0667 10.0194 11.1443 10.154 11.2549 10.2603C11.402 10.4015 11.597 10.4807 11.8008 10.4839C11.9051 10.4825 12.008 10.4613 12.1036 10.4194C12.1993 10.3775 12.2856 10.3167 12.3575 10.2407C12.4293 10.1648 12.485 10.075 12.5215 9.97705C12.5489 9.90382 12.5658 9.82725 12.5704 9.74951V9.66748C12.5689 9.56697 12.5477 9.4678 12.5079 9.37549C12.4679 9.28296 12.4103 9.19855 12.338 9.12842C12.2656 9.0583 12.1797 9.00331 12.086 8.96631C11.9922 8.9293 11.8919 8.91079 11.7911 8.9126H11.7891Z" fill="#FA8B02" stroke="#FA8B02" stroke-width="0.2"/>
<path d="M17.5872 7.58545L17.5765 7.5874C17.5789 7.75924 17.5873 7.9445 17.5755 8.12158C17.5677 8.23954 17.5249 8.35282 17.4437 8.43408C17.3604 8.51717 17.2443 8.5581 17.1087 8.54443C16.9757 8.53093 16.8708 8.47434 16.8011 8.38232C16.7335 8.29296 16.706 8.1798 16.7035 8.06494C16.6946 7.69759 16.6957 7.33002 16.7035 6.96436C16.7038 6.84302 16.7299 6.71746 16.7992 6.61865C16.8723 6.51431 16.9874 6.45011 17.14 6.44873C17.2907 6.44747 17.4067 6.50602 17.4827 6.60791C17.5551 6.70492 17.5836 6.83104 17.5872 6.95557V7.58545Z" fill="#FA8B02" stroke="#FA8B02" stroke-width="0.2"/>
<path d="M17.1285 3.33789C17.2639 3.33721 17.3755 3.385 17.4528 3.47266C17.5278 3.55804 17.5621 3.67136 17.566 3.78809C17.5805 4.17297 17.5793 4.55905 17.566 4.94336C17.5655 5.06721 17.5343 5.19066 17.4557 5.2832C17.394 5.35565 17.3099 5.40162 17.2076 5.41699L17.0992 5.42188C16.9578 5.41439 16.8521 5.35681 16.7838 5.26172C16.7192 5.1716 16.6951 5.05833 16.6891 4.95117C16.6833 4.84773 16.6863 4.75255 16.6901 4.66211C16.6939 4.57084 16.6983 4.48707 16.6989 4.39844L16.6949 4.09863C16.6937 3.99688 16.6938 3.89401 16.6989 3.79297C16.7045 3.6795 16.7364 3.56622 16.8082 3.47949C16.8826 3.38968 16.9918 3.33868 17.1285 3.33789Z" fill="#FA8B02" stroke="#FA8B02" stroke-width="0.2"/>
<path d="M17.1611 9.59375C17.1631 9.59385 17.1659 9.59363 17.1679 9.59375H17.1698L17.1689 9.59473C17.3057 9.60297 17.4097 9.65705 17.4784 9.74902C17.5448 9.83791 17.5701 9.95011 17.5761 10.0586C17.5873 10.2608 17.5801 10.4601 17.579 10.6582L17.578 11.2139V11.2158C17.5706 11.3284 17.5393 11.4406 17.4687 11.5273C17.3951 11.6176 17.287 11.6711 17.1503 11.6738C17.0148 11.6765 16.9033 11.6295 16.8251 11.543C16.7491 11.4588 16.7133 11.3463 16.707 11.2305V11.2285C16.6937 10.8255 16.6937 10.4228 16.707 10.0205C16.7042 9.96318 16.7135 9.90611 16.7343 9.85254C16.7564 9.79574 16.7906 9.74397 16.8349 9.70215C16.8792 9.66041 16.9322 9.62908 16.9902 9.61035C17.0453 9.59251 17.1035 9.58746 17.1611 9.59375Z" fill="#FA8B02" stroke="#FA8B02" stroke-width="0.2"/>
</svg>
